<svg preserveAspectRatio="none" width="100%" height="100%" overflow="visible" style="display: block;" viewBox="0 0 2650.72 317.229" fill="none" xmlns="http://www.w3.org/2000/svg">
<g id="Benefits Background">
<path id="Subtract" d="M2650.72 13.7148H2647.24C2644.64 13.7148 2642.52 15.8264 2642.52 18.4307V24.5078C2642.52 27.1121 2644.64 29.2236 2647.24 29.2236H2650.72V288.01H2647.24C2644.64 288.01 2642.53 290.12 2642.53 292.725V298.802C2642.53 301.406 2644.64 303.518 2647.24 303.518H2650.72V317.229H0V303.518H13.9678C16.5719 303.518 18.6833 301.407 18.6836 298.803V292.725C18.6835 290.12 16.572 288.01 13.9678 288.01H0V29.2227H13.9658C16.5699 29.2227 18.6814 27.1119 18.6816 24.5078V18.4297C18.6815 15.8255 16.57 13.7148 13.9658 13.7148H0V0H2650.72V13.7148ZM40.1768 288.01C37.5726 288.01 35.461 290.12 35.4609 292.725V298.803C35.4612 301.407 37.5727 303.518 40.1768 303.518H69.4365C72.0406 303.518 74.1521 301.407 74.1523 298.803V292.725C74.1522 290.12 72.0407 288.01 69.4365 288.01H40.1768ZM95.6494 288.01C93.0452 288.01 90.9337 290.12 90.9336 292.725V298.803C90.9339 301.407 93.0453 303.518 95.6494 303.518H124.909C127.513 303.518 129.625 301.407 129.625 298.803V292.725C129.625 290.12 127.513 288.01 124.909 288.01H95.6494ZM151.118 288.01C148.514 288.01 146.402 290.12 146.402 292.725V298.803C146.403 301.407 148.514 303.518 151.118 303.518H180.378C182.982 303.518 185.093 301.407 185.094 298.803V292.725C185.094 290.12 182.982 288.01 180.378 288.01H151.118ZM206.585 288.01C203.981 288.01 201.869 290.12 201.869 292.725V298.803C201.869 301.407 203.981 303.518 206.585 303.518H235.845C238.449 303.518 240.56 301.407 240.561 298.803V292.725C240.56 290.12 238.449 288.01 235.845 288.01H206.585ZM262.058 288.01C259.453 288.01 257.342 290.12 257.342 292.725V298.803C257.342 301.407 259.454 303.518 262.058 303.518H291.317C293.921 303.518 296.033 301.407 296.033 298.803V292.725C296.033 290.12 293.922 288.01 291.317 288.01H262.058ZM317.536 288.01C314.932 288.01 312.82 290.12 312.82 292.725V298.803C312.821 301.407 314.932 303.518 317.536 303.518H346.796C349.4 303.518 351.511 301.407 351.512 298.803V292.725C351.512 290.12 349.4 288.01 346.796 288.01H317.536ZM372.993 288.01C370.389 288.01 368.277 290.12 368.277 292.725V298.803C368.278 301.407 370.389 303.518 372.993 303.518H402.253C404.857 303.518 406.968 301.407 406.969 298.803V292.725C406.969 290.12 404.857 288.01 402.253 288.01H372.993ZM428.47 288.01C425.866 288.01 423.754 290.12 423.754 292.725V298.803C423.754 301.407 425.866 303.518 428.47 303.518H457.729C460.334 303.518 462.445 301.407 462.445 298.803V292.725C462.445 290.12 460.334 288.01 457.729 288.01H428.47ZM483.935 288.01C481.33 288.01 479.219 290.12 479.219 292.725V298.803C479.219 301.407 481.33 303.518 483.935 303.518H513.194C515.798 303.518 517.91 301.407 517.91 298.803V292.725C517.91 290.12 515.799 288.01 513.194 288.01H483.935ZM539.405 288.01C536.801 288.01 534.69 290.12 534.689 292.725V298.803C534.69 301.407 536.801 303.518 539.405 303.518H568.665C571.269 303.518 573.381 301.407 573.381 298.803V292.725C573.381 290.12 571.269 288.01 568.665 288.01H539.405ZM594.874 288.01C592.27 288.01 590.158 290.12 590.158 292.725V298.803C590.158 301.407 592.27 303.518 594.874 303.518H624.134C626.738 303.518 628.849 301.407 628.85 298.803V292.725C628.85 290.12 626.738 288.01 624.134 288.01H594.874ZM650.349 288.01C647.744 288.01 645.633 290.12 645.633 292.725V298.802C645.633 301.406 647.744 303.518 650.349 303.518H679.608C682.213 303.518 684.324 301.406 684.324 298.802V292.725C684.324 290.12 682.213 288.01 679.608 288.01H650.349ZM705.813 288.01C703.209 288.01 701.098 290.12 701.098 292.725V298.802C701.098 301.406 703.209 303.518 705.813 303.518H735.073C737.677 303.518 739.789 301.406 739.789 298.802V292.725C739.789 290.12 737.677 288.01 735.073 288.01H705.813ZM761.286 288.01C758.682 288.01 756.57 290.12 756.57 292.725V298.802C756.57 301.406 758.682 303.518 761.286 303.518H790.546C793.15 303.518 795.262 301.406 795.262 298.802V292.725C795.262 290.12 793.15 288.01 790.546 288.01H761.286ZM816.755 288.01C814.151 288.01 812.039 290.12 812.039 292.725V298.802C812.039 301.406 814.151 303.518 816.755 303.518H846.015C848.619 303.518 850.73 301.406 850.73 298.802V292.725C850.73 290.12 848.619 288.01 846.015 288.01H816.755ZM872.222 288.01C869.617 288.01 867.506 290.12 867.506 292.725V298.802C867.506 301.406 869.617 303.518 872.222 303.518H901.481C904.086 303.518 906.197 301.406 906.197 298.802V292.725C906.197 290.12 904.086 288.01 901.481 288.01H872.222ZM927.69 288.01C925.086 288.01 922.975 290.12 922.975 292.725V298.802C922.975 301.406 925.086 303.518 927.69 303.518H956.95C959.554 303.518 961.666 301.406 961.666 298.802V292.725C961.666 290.12 959.554 288.01 956.95 288.01H927.69ZM983.167 288.01C980.563 288.01 978.451 290.12 978.451 292.725V298.802C978.451 301.406 980.563 303.518 983.167 303.518H1012.43C1015.03 303.518 1017.14 301.406 1017.14 298.802V292.725C1017.14 290.12 1015.03 288.01 1012.43 288.01H983.167ZM1038.63 288.01C1036.03 288.01 1033.92 290.12 1033.92 292.725V298.802C1033.92 301.406 1036.03 303.518 1038.63 303.518H1067.89C1070.5 303.518 1072.61 301.406 1072.61 298.802V292.725C1072.61 290.12 1070.5 288.01 1067.89 288.01H1038.63ZM1094.1 288.01C1091.49 288.01 1089.38 290.12 1089.38 292.725V298.802C1089.38 301.406 1091.49 303.518 1094.1 303.518H1123.36C1125.96 303.518 1128.07 301.406 1128.07 298.802V292.725C1128.07 290.12 1125.96 288.01 1123.36 288.01H1094.1ZM1149.57 288.01C1146.96 288.01 1144.85 290.12 1144.85 292.725V298.802C1144.85 301.406 1146.96 303.518 1149.57 303.518H1178.83C1181.43 303.518 1183.54 301.406 1183.54 298.802V292.725C1183.54 290.12 1181.43 288.01 1178.83 288.01H1149.57ZM1260.51 288.01C1257.9 288.01 1255.79 290.12 1255.79 292.725V298.802C1255.79 301.406 1257.9 303.518 1260.51 303.518H1289.77C1292.37 303.518 1294.48 301.406 1294.48 298.802V292.725C1294.48 290.12 1292.37 288.01 1289.77 288.01H1260.51ZM1315.98 288.01C1313.38 288.01 1311.26 290.12 1311.26 292.725V298.802C1311.26 301.406 1313.38 303.518 1315.98 303.518H1345.24C1347.84 303.518 1349.96 301.406 1349.96 298.802V292.725C1349.96 290.12 1347.84 288.01 1345.24 288.01H1315.98ZM1371.45 288.01C1368.85 288.01 1366.74 290.12 1366.74 292.725V298.802C1366.74 301.406 1368.85 303.518 1371.45 303.518H1400.71C1403.32 303.518 1405.43 301.406 1405.43 298.802V292.725C1405.43 290.12 1403.32 288.01 1400.71 288.01H1371.45ZM1426.91 288.01C1424.31 288.01 1422.2 290.12 1422.2 292.725V298.802C1422.2 301.406 1424.31 303.518 1426.91 303.518H1456.17C1458.78 303.518 1460.89 301.406 1460.89 298.802V292.725C1460.89 290.12 1458.78 288.01 1456.17 288.01H1426.91ZM1482.39 288.01C1479.78 288.01 1477.67 290.12 1477.67 292.725V298.802C1477.67 301.406 1479.78 303.518 1482.39 303.518H1511.65C1514.25 303.518 1516.36 301.406 1516.36 298.802V292.725C1516.36 290.12 1514.25 288.01 1511.65 288.01H1482.39ZM1537.86 288.01C1535.26 288.01 1533.14 290.12 1533.14 292.725V298.802C1533.14 301.406 1535.26 303.518 1537.86 303.518H1567.12C1569.72 303.518 1571.84 301.406 1571.84 298.802V292.725C1571.84 290.12 1569.72 288.01 1567.12 288.01H1537.86ZM1593.32 288.01C1590.72 288.01 1588.61 290.12 1588.61 292.725V298.802C1588.61 301.406 1590.72 303.518 1593.32 303.518H1622.58C1625.19 303.518 1627.3 301.406 1627.3 298.802V292.725C1627.3 290.12 1625.19 288.01 1622.58 288.01H1593.32ZM1648.79 288.01C1646.19 288.01 1644.08 290.12 1644.08 292.725V298.802C1644.08 301.406 1646.19 303.518 1648.79 303.518H1678.05C1680.66 303.517 1682.77 301.406 1682.77 298.802V292.725C1682.77 290.121 1680.66 288.01 1678.05 288.01H1648.79ZM1704.26 288.01C1701.65 288.01 1699.54 290.12 1699.54 292.725V298.802C1699.54 301.406 1701.65 303.518 1704.26 303.518H1733.52C1736.12 303.517 1738.23 301.406 1738.23 298.802V292.725C1738.23 290.121 1736.12 288.01 1733.52 288.01H1704.26ZM1815.2 288.01C1812.6 288.01 1810.49 290.12 1810.49 292.725V298.802C1810.49 301.406 1812.6 303.518 1815.2 303.518H1844.46C1847.07 303.517 1849.18 301.406 1849.18 298.802V292.725C1849.18 290.121 1847.07 288.01 1844.46 288.01H1815.2ZM1870.68 288.01C1868.07 288.01 1865.96 290.12 1865.96 292.725V298.802C1865.96 301.406 1868.07 303.518 1870.68 303.518H1899.94C1902.54 303.517 1904.65 301.406 1904.65 298.802V292.725C1904.65 290.121 1902.54 288.01 1899.94 288.01H1870.68ZM1981.61 288.01C1979.01 288.01 1976.89 290.12 1976.89 292.725V298.802C1976.89 301.406 1979.01 303.518 1981.61 303.518H2010.87C2013.48 303.517 2015.59 301.406 2015.59 298.802V292.725C2015.59 290.121 2013.48 288.01 2010.87 288.01H1981.61ZM2092.56 288.01C2089.95 288.01 2087.84 290.12 2087.84 292.725V298.802C2087.84 301.406 2089.95 303.518 2092.56 303.518H2121.82C2124.42 303.517 2126.53 301.406 2126.53 298.802V292.725C2126.53 290.121 2124.42 288.01 2121.82 288.01H2092.56ZM2148.02 288.01C2145.42 288.01 2143.31 290.12 2143.31 292.725V298.802C2143.31 301.406 2145.42 303.518 2148.02 303.518H2177.28C2179.89 303.517 2182 301.406 2182 298.802V292.725C2182 290.121 2179.89 288.01 2177.28 288.01H2148.02ZM2258.96 288.01C2256.36 288.01 2254.25 290.12 2254.25 292.725V298.802C2254.25 301.406 2256.36 303.518 2258.96 303.518H2288.22C2290.83 303.517 2292.94 301.406 2292.94 298.802V292.725C2292.94 290.121 2290.83 288.01 2288.22 288.01H2258.96ZM2369.9 288.01C2367.3 288.01 2365.19 290.12 2365.19 292.725V298.802C2365.19 301.406 2367.3 303.518 2369.9 303.518H2399.16C2401.77 303.517 2403.88 301.406 2403.88 298.802V292.725C2403.88 290.121 2401.77 288.01 2399.16 288.01H2369.9ZM2425.37 288.01C2422.76 288.01 2420.65 290.12 2420.65 292.725V298.802C2420.65 301.406 2422.76 303.518 2425.37 303.518H2454.63C2457.23 303.517 2459.34 301.406 2459.34 298.802V292.725C2459.34 290.121 2457.23 288.01 2454.63 288.01H2425.37ZM2536.31 288.01C2533.7 288.01 2531.59 290.12 2531.59 292.725V298.802C2531.59 301.406 2533.7 303.518 2536.31 303.518H2565.57C2568.17 303.517 2570.28 301.406 2570.28 298.802V292.725C2570.28 290.121 2568.17 288.01 2565.57 288.01H2536.31ZM1205.04 288.008C1202.43 288.008 1200.32 290.119 1200.32 292.724V298.801C1200.32 301.405 1202.43 303.517 1205.04 303.517H1234.3C1236.9 303.517 1239.01 301.405 1239.01 298.801V292.724C1239.01 290.119 1236.9 288.008 1234.3 288.008H1205.04ZM1759.73 288.008C1757.13 288.008 1755.01 290.119 1755.01 292.724V298.801C1755.01 301.405 1757.13 303.517 1759.73 303.517H1788.99C1791.59 303.516 1793.71 301.405 1793.71 298.801V292.724C1793.71 290.12 1791.59 288.008 1788.99 288.008H1759.73ZM1926.14 288.008C1923.53 288.008 1921.42 290.119 1921.42 292.724V298.801C1921.42 301.405 1923.53 303.517 1926.14 303.517H1955.4C1958 303.516 1960.11 301.405 1960.11 298.801V292.724C1960.11 290.12 1958 288.008 1955.4 288.008H1926.14ZM2037.08 288.008C2034.48 288.008 2032.37 290.119 2032.37 292.724V298.801C2032.37 301.405 2034.48 303.517 2037.08 303.517H2066.34C2068.95 303.516 2071.06 301.405 2071.06 298.801V292.724C2071.06 290.12 2068.95 288.008 2066.34 288.008H2037.08ZM2203.49 288.008C2200.89 288.008 2198.78 290.119 2198.78 292.724V298.801C2198.78 301.405 2200.89 303.517 2203.49 303.517H2232.75C2235.36 303.516 2237.47 301.405 2237.47 298.801V292.724C2237.47 290.12 2235.36 288.008 2232.75 288.008H2203.49ZM2314.43 288.008C2311.82 288.008 2309.71 290.119 2309.71 292.724V298.801C2309.71 301.405 2311.82 303.517 2314.43 303.517H2343.69C2346.29 303.516 2348.4 301.405 2348.4 298.801V292.724C2348.4 290.12 2346.29 288.008 2343.69 288.008H2314.43ZM2480.84 288.008C2478.23 288.008 2476.12 290.119 2476.12 292.724V298.801C2476.12 301.405 2478.23 303.517 2480.84 303.517H2510.1C2512.7 303.516 2514.81 301.405 2514.81 298.801V292.724C2514.81 290.12 2512.7 288.008 2510.1 288.008H2480.84ZM2591.77 288.008C2589.17 288.008 2587.06 290.119 2587.06 292.724V298.801C2587.06 301.405 2589.17 303.517 2591.77 303.517H2621.04C2623.64 303.516 2625.75 301.405 2625.75 298.801V292.724C2625.75 290.12 2623.64 288.008 2621.04 288.008H2591.77ZM539.405 13.7148C536.801 13.7148 534.689 15.8264 534.689 18.4307V24.5078C534.689 27.1121 536.801 29.2236 539.405 29.2236H568.665C571.269 29.2236 573.381 27.1121 573.381 24.5078V18.4307C573.381 15.8264 571.269 13.7148 568.665 13.7148H539.405ZM594.874 13.7148C592.27 13.7148 590.158 15.8264 590.158 18.4307V24.5078C590.158 27.1121 592.27 29.2236 594.874 29.2236H624.134C626.738 29.2236 628.85 27.1121 628.85 24.5078V18.4307C628.85 15.8264 626.738 13.7148 624.134 13.7148H594.874ZM705.812 13.7148C703.207 13.7148 701.096 15.8264 701.096 18.4307V24.5078C701.096 27.1121 703.207 29.2236 705.812 29.2236H735.071C737.676 29.2236 739.787 27.1121 739.787 24.5078V18.4307C739.787 15.8264 737.676 13.7148 735.071 13.7148H705.812ZM761.282 13.7148C758.678 13.7148 756.566 15.8264 756.566 18.4307V24.5078C756.566 27.1121 758.678 29.2236 761.282 29.2236H790.542C793.146 29.2236 795.258 27.1121 795.258 24.5078V18.4307C795.258 15.8264 793.146 13.7148 790.542 13.7148H761.282ZM816.747 13.7148C814.143 13.7148 812.031 15.8264 812.031 18.4307V24.5078C812.031 27.1121 814.143 29.2236 816.747 29.2236H846.007C848.611 29.2236 850.723 27.1121 850.723 24.5078V18.4307C850.723 15.8264 848.611 13.7148 846.007 13.7148H816.747ZM1315.98 13.7148C1313.37 13.7148 1311.26 15.8264 1311.26 18.4307V24.5078C1311.26 27.1121 1313.37 29.2236 1315.98 29.2236H1345.24C1347.84 29.2236 1349.95 27.1121 1349.95 24.5078V18.4307C1349.95 15.8264 1347.84 13.7148 1345.24 13.7148H1315.98ZM1593.33 13.7148C1590.72 13.7148 1588.61 15.8264 1588.61 18.4307V24.5078C1588.61 27.1121 1590.72 29.2236 1593.33 29.2236H1622.58C1625.19 29.2236 1627.3 27.1121 1627.3 24.5078V18.4307C1627.3 15.8264 1625.19 13.7148 1622.58 13.7148H1593.33ZM1648.79 13.7148C1646.19 13.7148 1644.07 15.8264 1644.07 18.4307V24.5078C1644.07 27.1121 1646.19 29.2236 1648.79 29.2236H1678.05C1680.65 29.2236 1682.77 27.1121 1682.77 24.5078V18.4307C1682.77 15.8264 1680.65 13.7148 1678.05 13.7148H1648.79ZM1704.26 13.7148C1701.65 13.7148 1699.54 15.8264 1699.54 18.4307V24.5078C1699.54 27.1121 1701.65 29.2236 1704.26 29.2236H1733.52C1736.12 29.2236 1738.23 27.1121 1738.23 24.5078V18.4307C1738.23 15.8264 1736.12 13.7148 1733.52 13.7148H1704.26ZM2037.08 13.7148C2034.48 13.7148 2032.37 15.8264 2032.37 18.4307V24.5078C2032.37 27.1121 2034.48 29.2236 2037.08 29.2236H2066.34C2068.95 29.2236 2071.06 27.1121 2071.06 24.5078V18.4307C2071.06 15.8264 2068.95 13.7148 2066.34 13.7148H2037.08ZM2092.55 13.7148C2089.95 13.7148 2087.84 15.8264 2087.84 18.4307V24.5078C2087.84 27.1121 2089.95 29.2236 2092.55 29.2236H2121.81C2124.42 29.2236 2126.53 27.1121 2126.53 24.5078V18.4307C2126.53 15.8264 2124.42 13.7148 2121.81 13.7148H2092.55ZM2203.49 13.7148C2200.89 13.7148 2198.77 15.8264 2198.77 18.4307V24.5078C2198.77 27.1121 2200.89 29.2236 2203.49 29.2236H2232.75C2235.35 29.2236 2237.46 27.1121 2237.46 24.5078V18.4307C2237.46 15.8264 2235.35 13.7148 2232.75 13.7148H2203.49ZM2314.43 13.7148C2311.82 13.7148 2309.71 15.8264 2309.71 18.4307V24.5078C2309.71 27.1121 2311.82 29.2236 2314.43 29.2236H2343.69C2346.29 29.2236 2348.4 27.1121 2348.4 24.5078V18.4307C2348.4 15.8264 2346.29 13.7148 2343.69 13.7148H2314.43ZM2369.9 13.7148C2367.29 13.7148 2365.18 15.8264 2365.18 18.4307V24.5078C2365.18 27.1121 2367.29 29.2236 2369.9 29.2236H2399.16C2401.76 29.2236 2403.87 27.1121 2403.87 24.5078V18.4307C2403.87 15.8264 2401.76 13.7148 2399.16 13.7148H2369.9ZM2425.37 13.7148C2422.76 13.7148 2420.65 15.8264 2420.65 18.4307V24.5078C2420.65 27.1121 2422.76 29.2236 2425.37 29.2236H2454.63C2457.23 29.2236 2459.34 27.1121 2459.34 24.5078V18.4307C2459.34 15.8264 2457.23 13.7148 2454.63 13.7148H2425.37ZM2480.83 13.7148C2478.23 13.7148 2476.12 15.8264 2476.12 18.4307V24.5078C2476.12 27.1121 2478.23 29.2236 2480.83 29.2236H2510.09C2512.7 29.2236 2514.81 27.1121 2514.81 24.5078V18.4307C2514.81 15.8264 2512.7 13.7148 2510.09 13.7148H2480.83ZM2536.3 13.7148C2533.7 13.7148 2531.59 15.8264 2531.59 18.4307V24.5078C2531.59 27.1121 2533.7 29.2236 2536.3 29.2236H2565.56C2568.17 29.2236 2570.28 27.1121 2570.28 24.5078V18.4307C2570.28 15.8264 2568.17 13.7148 2565.56 13.7148H2536.3ZM40.1768 13.7148C37.5726 13.7148 35.461 15.8255 35.4609 18.4297V24.5078C35.4612 27.1119 37.5727 29.2227 40.1768 29.2227H69.4365C72.0406 29.2227 74.1521 27.1119 74.1523 24.5078V18.4297C74.1522 15.8255 72.0407 13.7148 69.4365 13.7148H40.1768ZM95.6455 13.7148C93.0413 13.7148 90.9298 15.8255 90.9297 18.4297V24.5078C90.9299 27.1119 93.0414 29.2227 95.6455 29.2227H124.905C127.509 29.2227 129.621 27.1119 129.621 24.5078V18.4297C129.621 15.8255 127.509 13.7148 124.905 13.7148H95.6455ZM151.118 13.7148C148.514 13.7148 146.402 15.8255 146.402 18.4297V24.5078C146.403 27.1119 148.514 29.2227 151.118 29.2227H180.378C182.982 29.2227 185.094 27.1119 185.094 24.5078V18.4297C185.094 15.8255 182.982 13.7148 180.378 13.7148H151.118ZM206.579 13.7148C203.975 13.7148 201.863 15.8255 201.863 18.4297V24.5078C201.864 27.1119 203.975 29.2227 206.579 29.2227H235.839C238.443 29.2227 240.554 27.1119 240.555 24.5078V18.4297C240.555 15.8255 238.443 13.7148 235.839 13.7148H206.579ZM262.05 13.7148C259.446 13.7148 257.334 15.8255 257.334 18.4297V24.5078C257.334 27.1119 259.446 29.2227 262.05 29.2227H291.31C293.914 29.2227 296.025 27.1119 296.025 24.5078V18.4297C296.025 15.8255 293.914 13.7148 291.31 13.7148H262.05ZM317.528 13.7148C314.924 13.7148 312.813 15.8255 312.812 18.4297V24.5078C312.813 27.1119 314.924 29.2227 317.528 29.2227H346.788C349.392 29.2227 351.504 27.1119 351.504 24.5078V18.4297C351.504 15.8255 349.392 13.7148 346.788 13.7148H317.528ZM372.993 13.7148C370.389 13.7148 368.277 15.8255 368.277 18.4297V24.5078C368.278 27.1119 370.389 29.2227 372.993 29.2227H402.253C404.857 29.2227 406.969 27.1119 406.969 24.5078V18.4297C406.969 15.8255 404.857 13.7148 402.253 13.7148H372.993ZM428.458 13.7148C425.854 13.7148 423.742 15.8255 423.742 18.4297V24.5078C423.742 27.1119 425.854 29.2227 428.458 29.2227H457.718C460.322 29.2227 462.433 27.1119 462.434 24.5078V18.4297C462.433 15.8255 460.322 13.7148 457.718 13.7148H428.458ZM483.931 13.7148C481.326 13.7148 479.215 15.8255 479.215 18.4297V24.5078C479.215 27.1119 481.327 29.2227 483.931 29.2227H513.19C515.795 29.2227 517.906 27.1119 517.906 24.5078V18.4297C517.906 15.8255 515.795 13.7148 513.19 13.7148H483.931ZM650.347 13.7148C647.742 13.7148 645.631 15.8255 645.631 18.4297V24.5068C645.631 27.1111 647.742 29.2227 650.347 29.2227H679.606C682.211 29.2227 684.322 27.1111 684.322 24.5068V18.4297C684.322 15.8255 682.211 13.7148 679.606 13.7148H650.347ZM872.22 13.7148C869.616 13.7148 867.504 15.8255 867.504 18.4297V24.5068C867.504 27.1111 869.615 29.2227 872.22 29.2227H901.479C904.084 29.2227 906.195 27.1111 906.195 24.5068V18.4297C906.195 15.8255 904.084 13.7148 901.479 13.7148H872.22ZM927.69 13.7148C925.086 13.7148 922.975 15.8255 922.975 18.4297V24.5068C922.975 27.1111 925.086 29.2227 927.69 29.2227H956.95C959.554 29.2227 961.666 27.1111 961.666 24.5068V18.4297C961.666 15.8255 959.554 13.7148 956.95 13.7148H927.69ZM983.167 13.7148C980.563 13.7148 978.451 15.8255 978.451 18.4297V24.5068C978.451 27.1111 980.563 29.2227 983.167 29.2227H1012.43C1015.03 29.2227 1017.14 27.1111 1017.14 24.5068V18.4297C1017.14 15.8255 1015.03 13.7148 1012.43 13.7148H983.167ZM1038.62 13.7148C1036.02 13.7148 1033.91 15.8255 1033.91 18.4297V24.5068C1033.91 27.1111 1036.02 29.2227 1038.62 29.2227H1067.88C1070.49 29.2227 1072.6 27.1111 1072.6 24.5068V18.4297C1072.6 15.8255 1070.49 13.7148 1067.88 13.7148H1038.62ZM1094.1 13.7148C1091.49 13.7148 1089.38 15.8255 1089.38 18.4297V24.5068C1089.38 27.1111 1091.49 29.2227 1094.1 29.2227H1123.36C1125.96 29.2227 1128.07 27.1111 1128.07 24.5068V18.4297C1128.07 15.8255 1125.96 13.7148 1123.36 13.7148H1094.1ZM1149.56 13.7148C1146.96 13.7148 1144.85 15.8255 1144.85 18.4297V24.5068C1144.85 27.1111 1146.96 29.2227 1149.56 29.2227H1178.82C1181.43 29.2227 1183.54 27.1111 1183.54 24.5068V18.4297C1183.54 15.8255 1181.43 13.7148 1178.82 13.7148H1149.56ZM1205.04 13.7148C1202.43 13.7148 1200.32 15.8255 1200.32 18.4297V24.5068C1200.32 27.1111 1202.43 29.2227 1205.04 29.2227H1234.3C1236.9 29.2227 1239.01 27.1111 1239.01 24.5068V18.4297C1239.01 15.8255 1236.9 13.7148 1234.3 13.7148H1205.04ZM1260.5 13.7148C1257.9 13.7148 1255.79 15.8255 1255.79 18.4297V24.5068C1255.79 27.1111 1257.9 29.2227 1260.5 29.2227H1289.76C1292.37 29.2227 1294.48 27.1111 1294.48 24.5068V18.4297C1294.48 15.8255 1292.37 13.7148 1289.76 13.7148H1260.5ZM1371.45 13.7148C1368.85 13.7148 1366.74 15.8255 1366.74 18.4297V24.5068C1366.74 27.1111 1368.85 29.2227 1371.45 29.2227H1400.71C1403.32 29.2227 1405.43 27.1111 1405.43 24.5068V18.4297C1405.43 15.8255 1403.32 13.7148 1400.71 13.7148H1371.45ZM1426.91 13.7148C1424.31 13.7148 1422.2 15.8255 1422.2 18.4297V24.5068C1422.2 27.1111 1424.31 29.2227 1426.91 29.2227H1456.17C1458.78 29.2227 1460.89 27.1111 1460.89 24.5068V18.4297C1460.89 15.8255 1458.78 13.7148 1456.17 13.7148H1426.91ZM1482.39 13.7148C1479.78 13.7148 1477.67 15.8255 1477.67 18.4297V24.5068C1477.67 27.1111 1479.78 29.2227 1482.39 29.2227H1511.65C1514.25 29.2227 1516.36 27.1111 1516.36 24.5068V18.4297C1516.36 15.8255 1514.25 13.7148 1511.65 13.7148H1482.39ZM1537.86 13.7148C1535.25 13.7148 1533.14 15.8255 1533.14 18.4297V24.5068C1533.14 27.1111 1535.25 29.2227 1537.86 29.2227H1567.12C1569.72 29.2227 1571.83 27.1111 1571.83 24.5068V18.4297C1571.83 15.8255 1569.72 13.7148 1567.12 13.7148H1537.86ZM1759.73 13.7148C1757.13 13.7148 1755.01 15.8255 1755.01 18.4297V24.5068C1755.01 27.1111 1757.13 29.2227 1759.73 29.2227H1788.99C1791.59 29.2227 1793.71 27.1111 1793.71 24.5068V18.4297C1793.71 15.8255 1791.59 13.7148 1788.99 13.7148H1759.73ZM1815.2 13.7148C1812.6 13.7148 1810.49 15.8255 1810.49 18.4297V24.5068C1810.49 27.1111 1812.6 29.2227 1815.2 29.2227H1844.46C1847.07 29.2227 1849.18 27.1111 1849.18 24.5068V18.4297C1849.18 15.8255 1847.07 13.7148 1844.46 13.7148H1815.2ZM1870.67 13.7148C1868.07 13.7148 1865.96 15.8255 1865.96 18.4297V24.5068C1865.96 27.1111 1868.07 29.2227 1870.67 29.2227H1899.93C1902.54 29.2227 1904.65 27.1111 1904.65 24.5068V18.4297C1904.65 15.8255 1902.54 13.7148 1899.93 13.7148H1870.67ZM1926.14 13.7148C1923.53 13.7148 1921.42 15.8255 1921.42 18.4297V24.5068C1921.42 27.1111 1923.53 29.2227 1926.14 29.2227H1955.4C1958 29.2227 1960.11 27.1111 1960.11 24.5068V18.4297C1960.11 15.8255 1958 13.7148 1955.4 13.7148H1926.14ZM1981.61 13.7148C1979 13.7148 1976.89 15.8255 1976.89 18.4297V24.5068C1976.89 27.1111 1979 29.2227 1981.61 29.2227H2010.87C2013.47 29.2227 2015.58 27.1111 2015.58 24.5068V18.4297C2015.58 15.8255 2013.47 13.7148 2010.87 13.7148H1981.61ZM2148.01 13.7148C2145.41 13.7148 2143.3 15.8255 2143.3 18.4297V24.5068C2143.3 27.1111 2145.41 29.2227 2148.01 29.2227H2177.27C2179.88 29.2227 2181.99 27.1111 2181.99 24.5068V18.4297C2181.99 15.8255 2179.88 13.7148 2177.27 13.7148H2148.01ZM2258.95 13.7148C2256.35 13.7148 2254.23 15.8255 2254.23 18.4297V24.5068C2254.23 27.1111 2256.35 29.2227 2258.95 29.2227H2288.21C2290.81 29.2227 2292.93 27.1111 2292.93 24.5068V18.4297C2292.93 15.8255 2290.81 13.7148 2288.21 13.7148H2258.95ZM2591.77 13.7148C2589.17 13.7148 2587.06 15.8255 2587.06 18.4297V24.5068C2587.06 27.1111 2589.17 29.2227 2591.77 29.2227H2621.03C2623.64 29.2227 2625.75 27.1111 2625.75 24.5068V18.4297C2625.75 15.8255 2623.64 13.7148 2621.03 13.7148H2591.77Z" fill="url(#paint0_linear_0_8)"/>
</g>
<defs>
<linearGradient id="paint0_linear_0_8" x1="608.57" y1="142.605" x2="2072.07" y2="186.061" gradientUnits="userSpaceOnUse">
<stop stop-color="#2A2C35"/>
<stop offset="0.697943" stop-color="#21232B"/>
<stop offset="1" stop-color="#21232B" stop-opacity="0"/>
</linearGradient>
</defs>
</svg>
