<svg preserveAspectRatio="none" width="100%" height="100%" overflow="visible" style="display: block;" viewBox="0 0 104.94 8.45009" fill="none" xmlns="http://www.w3.org/2000/svg">
<g id="Group">
<path id="Vector" d="M4.14128 0.261486V3.11652H1.04314V0.261486H0V6.87094H1.04314V3.99499H4.14128V6.87094H5.18443V0.261486H4.14128Z" fill="var(--fill-0, #F5F4EC)"/>
<path id="Vector_2" d="M39.5342 3.35705L41.9647 0.261486H40.8903L38.8666 2.87598V0.261486H37.8234V2.87598L35.7893 0.261486H34.694L37.1245 3.35705L34.4958 6.87094H35.6746L37.7087 4.09957L37.8234 4.23552V6.87094H38.8666V4.22506L38.95 4.09957L41.005 6.87094H42.1942L39.5342 3.35705Z" fill="var(--fill-0, #F5F4EC)"/>
<path id="Vector_3" d="M94.435 0.261486V1.08767H95.7911V6.87094H96.8238V1.08767H98.159V0.261486H94.435Z" fill="var(--fill-0, #F5F4EC)"/>
<path id="Vector_4" d="M25.1078 3.11655C25.5667 2.79235 25.8484 2.26945 25.838 1.70472C25.838 0.575258 24.9096 0.0628167 23.6474 0.0628167C23.1049 0.0628167 22.5625 0.115104 22.0201 0.219684V6.82914C22.5625 6.93372 23.1049 6.986 23.6474 6.99646C25.2955 6.99646 26.3908 6.43173 26.3908 4.98853C26.443 4.14143 25.9214 3.36754 25.1078 3.11655V3.11655ZM23.0423 0.847166C23.2614 0.794876 23.4805 0.7635 23.71 0.7635C23.7517 0.753042 23.783 0.753044 23.8247 0.753044C24.388 0.763502 24.8366 1.22365 24.8261 1.78838V1.87205C24.7948 2.46815 24.2941 2.91785 23.71 2.89693H23.0423V0.847166V0.847166ZM23.71 6.27486C23.4805 6.27486 23.2614 6.25394 23.0423 6.21211V3.5767H23.8247C24.8261 3.5767 25.3268 4.16235 25.3268 4.96762C25.3268 5.73105 24.8678 6.27486 23.71 6.27486Z" fill="var(--fill-0, #F5F4EC)"/>
<path id="Vector_5" d="M13.0912 3.59761C13.0912 1.39098 11.9228 0.0628167 9.96173 0.0628167C8.00062 0.0628167 6.73842 1.52693 6.73842 3.59761C6.73842 5.6683 7.89631 7.06967 10.1599 7.08013C11.1196 7.06967 12.048 6.81867 12.8721 6.32715L12.4548 5.71013C11.7768 6.07616 11.0257 6.27486 10.2642 6.28532C8.74126 6.28532 7.79199 5.38593 7.79199 3.85906H13.0703C13.0912 3.7754 13.1016 3.68128 13.0912 3.59761V3.59761ZM7.82329 3.11655C7.93803 1.6838 8.79341 0.899455 9.96173 0.899455C11.1301 0.899455 11.9437 1.66289 12.048 3.11655H7.82329Z" fill="var(--fill-0, #F5F4EC)"/>
<path id="Vector_6" d="M56.4124 2.99157e-05L54.42 4.38193C54.347 4.60154 54.3053 4.80024 54.2427 5.0094C54.2218 4.78979 54.1801 4.58063 54.0966 4.38193L52.0938 2.99157e-05L50.2266 6.87093H51.2697L52.3024 3.01193C52.3337 2.85506 52.365 2.69819 52.3755 2.53087C52.4172 2.68773 52.4798 2.8446 52.5528 2.99102L54.2635 7.06963L55.943 3.03285C56.0265 2.87598 56.089 2.70865 56.1308 2.53087C56.1308 2.70865 56.1516 2.88644 56.1829 3.05376L57.2261 6.87093H58.2692L56.4124 2.99157e-05V2.99157e-05Z" fill="var(--fill-0, #F5F4EC)"/>
<path id="Vector_7" d="M83.9727 2.99157e-05L81.9803 4.38193C81.8968 4.60154 81.8551 4.80024 81.8029 5.0094C81.7821 4.78979 81.7299 4.58063 81.6569 4.38193L79.654 2.99157e-05L77.7868 6.87093H78.83L79.8523 3.01193C79.894 2.85506 79.9148 2.67728 79.9357 2.53087C79.9774 2.68773 80.04 2.8446 80.113 2.99102L81.8238 7.06963L83.5033 3.03285C83.5763 2.87598 83.6389 2.70865 83.6806 2.53087C83.691 2.70865 83.7119 2.88644 83.7432 3.05376L84.7863 6.87093H85.8295L83.9727 2.99157e-05V2.99157e-05Z" fill="var(--fill-0, #F5F4EC)"/>
<path id="Vector_8" d="M90.2006 0.0628167C88.0935 0.0628167 86.8313 1.44327 86.8313 3.53487C86.8313 5.62647 88.0935 7.06967 90.2006 7.08013C92.2869 7.08013 93.5491 5.64738 93.5491 3.53487C93.5491 1.42235 92.2869 0.0628167 90.2006 0.0628167V0.0628167ZM90.2006 6.21211C88.6985 6.21211 87.8744 5.00944 87.8744 3.53487C87.8744 2.06029 88.6985 0.920371 90.2006 0.920371C91.7027 0.920371 92.4955 2.07075 92.4955 3.53487C92.4955 4.99899 91.7027 6.21211 90.2006 6.21211Z" fill="var(--fill-0, #F5F4EC)"/>
<path id="Vector_9" d="M28.842 4.90486V0.240601H27.8614V7.17424L32.3782 2.3322V6.87097H33.3588V0.0628167L28.842 4.90486Z" fill="var(--fill-0, #F5F4EC)"/>
<path id="Vector_10" d="M44.3531 4.90486V0.240601H43.3622V7.17424L47.879 2.3322V6.87097H48.8595V0.0628167L44.3531 4.90486Z" fill="var(--fill-0, #F5F4EC)"/>
<path id="Vector_11" d="M60.6686 4.90486V0.240601H59.6776V7.17424L64.1944 2.3322V6.87097H65.1749V0.0628167L60.6686 4.90486Z" fill="var(--fill-0, #F5F4EC)"/>
<path id="Vector_12" d="M71.9145 4.90485V0.240589H70.9131V7.17423L75.4404 2.33219V6.87096H76.4209V0.0628052L71.9145 4.90485Z" fill="var(--fill-0, #F5F4EC)"/>
<path id="Vector_13" d="M100.434 4.90486V0.240601H99.4426V7.17424L103.959 2.3322V6.87097H104.94V0.0628167L100.434 4.90486Z" fill="var(--fill-0, #F5F4EC)"/>
<path id="Vector_14" d="M19.6314 5.99246V0.261486H15.3754C15.3754 2.29034 15.198 4.27735 14.6139 5.99246H13.7793V8.45009H14.8225V6.87094H19.5584V8.45009H20.6015V5.99246H19.6314V5.99246ZM18.5882 5.99246H15.6153C16.0951 4.42376 16.335 2.78186 16.3246 1.13996H18.5882V5.99246Z" fill="var(--fill-0, #F5F4EC)"/>
</g>
</svg>
